<svg xmlns="http://www.w3.org/2000/svg" height="512" width="512"><path d="M218.205 271.882l102.1 103.27c9.347 9.453 24.6 9.4 33.9 0l11.587-11.587c9.4-9.4 8.23-24.6-1.17-33.9l-75.851-77.02 78.19-73.515c9.685-9.106 9.4-24.6 0-33.9l-9.149-9.448c-9.4-9.4-24.6-9.4-33.9 0l-105.607 102.1c-9.5 9.4-9.446 24.547-.1 34z"/><path d="M471.239 23.406H156.757c-11.275 0-16.353 6.471-16.353 14.509v436.17c0 8.038 5.078 14.509 16.353 14.509H471.24c11.275 0 19.522-6.471 19.522-14.508V37.915c0-8.038-8.247-14.509-19.522-14.509zm3.29-17.363c19.047 0 34.381 15.334 34.381 34.38v433.364c0 19.047-15.334 34.381-34.38 34.381H41.973c-19.047 0-34.38-15.334-34.38-34.38V40.423c0-19.047 15.333-34.381 34.38-34.381z"/></svg>