<svg xmlns="http://www.w3.org/2000/svg" height="512" width="512"><path d="M298.3 271.882l-102.1 103.27c-9.347 9.453-24.6 9.4-33.9 0l-11.587-11.587c-9.4-9.4-8.23-24.6 1.17-33.9l75.851-77.02-78.19-73.515c-9.685-9.106-9.4-24.6 0-33.9l9.149-9.448c9.4-9.4 24.6-9.4 33.9 0l105.607 102.1c9.5 9.4 9.446 24.547.1 34z"/><path d="M45.266 23.406h314.482c11.275 0 16.352 6.471 16.352 14.509v436.17c0 8.038-5.077 14.509-16.352 14.509H45.266c-11.275 0-19.522-6.471-19.522-14.508V37.915c0-8.038 8.247-14.509 19.522-14.509zm-3.29-17.363c-19.047 0-34.381 15.334-34.381 34.38v433.364c0 19.047 15.334 34.381 34.38 34.381h432.556c19.047 0 34.38-15.334 34.38-34.38V40.423c0-19.047-15.333-34.381-34.38-34.381z"/></svg>